<svg width="39" height="42" viewBox="0 0 39 42" fill="none" xmlns="http://www.w3.org/2000/svg">
<path d="M20 35.7398C20 37.949 18.2091 39.7398 16 39.7398C13.7909 39.7398 12 37.949 12 35.7398C12 33.5307 13.7909 31.7398 16 31.7398C18.2091 31.7398 20 33.5307 20 35.7398Z" stroke="#CCD6F6" stroke-width="4"/>
<circle cx="12.2942" cy="16.034" r="7" transform="rotate(-120 12.2942 16.034)" stroke="#CCD6F6" stroke-width="4"/>
<rect x="24.4955" y="31.488" width="8.07246" height="2.01811" rx="1.00906" transform="rotate(-150 24.4955 31.488)" fill="#CCD6F6"/>
<rect x="30.5135" y="22.7041" width="8.07246" height="2.01811" rx="1.00906" transform="rotate(30 30.5135 22.7041)" fill="#CCD6F6"/>
<rect x="25.5045" y="24.4518" width="8.07246" height="2.01811" rx="1.00906" transform="rotate(150 25.5045 24.4518)" fill="#CCD6F6"/>
<rect x="29.5045" y="29.7403" width="8.07246" height="2.01811" rx="1.00906" transform="rotate(-30 29.5045 29.7403)" fill="#CCD6F6"/>
<rect x="25.5045" y="30.5694" width="8.07246" height="2.01811" rx="1.00906" transform="rotate(-76.9919 25.5045 30.5694)" fill="#CCD6F6"/>
<rect x="12.5" y="34.3904" width="16" height="4" transform="rotate(-120 12.5 34.3904)" fill="#CCD6F6"/>
</svg>
